<?xml version="1.0" encoding="UTF-8"?><svg id="Ebene_2" xmlns="http://www.w3.org/2000/svg" viewBox="0 0 1920 400"><defs><style>.cls-1,.cls-2{fill:none;}.cls-2{stroke:#000;stroke-width:2px;}</style></defs><g id="Ebene_1-2"><rect class="cls-1" width="1920" height="400"/><path d="m320.32,297.28v-20.28h15.18v2.36h-12.3v6.94h10.53v2.35h-10.53v8.63h-2.88Z"/><path d="m347.22,297.17c-.2.05-.41.11-.65.16-.23.05-.49.1-.77.14-.28.04-.57.08-.89.1-.32.03-.66.04-1.03.04-.72,0-1.32-.08-1.81-.24s-.89-.39-1.19-.7c-.3-.31-.52-.7-.66-1.16-.13-.46-.2-.99-.2-1.6v-16.91h2.77v16.58c0,.29.02.54.07.75.05.22.14.4.27.54.13.15.31.25.54.33s.52.11.89.11c.57,0,1.07-.03,1.51-.08s.82-.12,1.15-.21v2.13Z"/><path d="m364.42,296.3c-.41.19-.84.36-1.3.52-.46.16-.96.3-1.49.42-.54.12-1.11.21-1.73.27-.62.07-1.29.1-2.01.1-.94,0-1.81-.09-2.59-.26-.78-.17-1.48-.42-2.11-.75s-1.17-.72-1.63-1.18-.85-.98-1.16-1.55c-.31-.57-.54-1.19-.7-1.87-.15-.67-.23-1.38-.23-2.13,0-.68.08-1.34.24-1.97s.39-1.21.7-1.75c.31-.54.69-1.03,1.15-1.47s.98-.82,1.57-1.13c.59-.31,1.25-.55,1.98-.72.73-.17,1.51-.26,2.36-.26s1.61.08,2.32.24c.72.16,1.37.38,1.96.68.59.29,1.11.65,1.56,1.07.45.42.83.88,1.14,1.4.31.52.54,1.08.7,1.69s.24,1.25.24,1.93c0,.09,0,.19,0,.29,0,.1,0,.2-.01.3,0,.1-.01.19-.02.28,0,.09-.01.16-.02.23h-13.1c.05.72.21,1.36.47,1.94s.64,1.07,1.13,1.48,1.1.73,1.82.95c.72.22,1.57.33,2.53.33.69,0,1.33-.04,1.9-.11.58-.07,1.12-.17,1.61-.28.5-.12.97-.25,1.41-.41s.87-.32,1.29-.49v2.21Zm-1.74-7.76c-.06-.57-.24-1.08-.52-1.55-.29-.47-.66-.88-1.12-1.21-.46-.34-.99-.6-1.6-.79-.61-.19-1.27-.28-1.97-.28s-1.36.09-1.98.28-1.15.45-1.61.79-.83.74-1.12,1.21c-.28.47-.45.99-.51,1.55h10.42Z"/><path d="m381.13,297.28l-5.18-5.57-5.2,5.57h-3.45l7-7.31-6.78-7.05h3.59l4.87,5.29,4.93-5.29h3.45l-6.72,7.03,7.08,7.33h-3.58Z"/><path d="m388.44,280.03v-3.03h2.78v3.03h-2.78Zm0,17.25v-14.36h2.78v14.36h-2.78Z"/><path d="m397.65,297.28v-20.28h2.78v7.03c.34-.22.72-.42,1.14-.59s.87-.33,1.34-.46c.47-.13.96-.23,1.48-.3.51-.07,1.03-.11,1.56-.11,1.27,0,2.41.17,3.44.5s1.9.82,2.62,1.46c.72.64,1.28,1.42,1.67,2.36.39.93.59,1.99.59,3.19s-.19,2.22-.57,3.15-.94,1.72-1.66,2.37c-.73.65-1.62,1.15-2.67,1.49-1.05.35-2.24.52-3.58.52-.55,0-1.08-.03-1.61-.1-.53-.07-1.03-.16-1.51-.29-.48-.13-.93-.29-1.35-.47s-.79-.4-1.12-.65l-.2,1.18h-2.32Zm2.78-3.19c.34.22.7.42,1.08.59.38.17.78.32,1.19.44.41.12.85.21,1.29.28s.91.1,1.39.1c.97,0,1.83-.12,2.58-.35.75-.23,1.38-.57,1.89-1.03.51-.45.89-1.02,1.16-1.69.26-.67.39-1.46.39-2.34s-.13-1.67-.39-2.33c-.26-.67-.65-1.22-1.16-1.66-.51-.44-1.14-.77-1.89-1-.75-.22-1.61-.33-2.58-.33-.48,0-.94.03-1.39.1s-.88.16-1.29.28c-.41.12-.81.27-1.19.44-.38.17-.74.37-1.08.59v7.92Z"/><path d="m426.43,297.17c-.2.05-.41.11-.65.16-.24.05-.49.1-.77.14-.28.04-.57.08-.89.1-.32.03-.66.04-1.03.04-.71,0-1.32-.08-1.81-.24s-.89-.39-1.19-.7c-.3-.31-.52-.7-.66-1.16-.13-.46-.2-.99-.2-1.6v-16.91h2.77v16.58c0,.29.02.54.07.75.05.22.14.4.27.54.13.15.31.25.54.33s.52.11.89.11c.56,0,1.07-.03,1.51-.08s.83-.12,1.15-.21v2.13Z"/><path d="m443.62,296.3c-.41.19-.84.36-1.3.52-.46.16-.96.3-1.49.42-.54.12-1.11.21-1.73.27-.62.07-1.29.1-2.01.1-.94,0-1.81-.09-2.59-.26-.78-.17-1.48-.42-2.11-.75s-1.17-.72-1.63-1.18-.85-.98-1.16-1.55c-.31-.57-.54-1.19-.7-1.87-.16-.67-.23-1.38-.23-2.13,0-.68.08-1.34.24-1.97s.39-1.21.7-1.75c.31-.54.69-1.03,1.15-1.47s.98-.82,1.57-1.13c.59-.31,1.25-.55,1.98-.72.73-.17,1.51-.26,2.36-.26s1.61.08,2.32.24c.71.16,1.37.38,1.96.68.59.29,1.11.65,1.56,1.07.45.42.83.88,1.14,1.4.31.52.54,1.08.7,1.69s.24,1.25.24,1.93c0,.09,0,.19,0,.29,0,.1,0,.2-.01.3,0,.1-.01.19-.02.28,0,.09-.01.16-.02.23h-13.1c.05.72.21,1.36.47,1.94s.64,1.07,1.13,1.48,1.1.73,1.82.95c.72.22,1.57.33,2.53.33.69,0,1.33-.04,1.9-.11.58-.07,1.11-.17,1.61-.28.5-.12.97-.25,1.41-.41s.87-.32,1.29-.49v2.21Zm-1.74-7.76c-.06-.57-.24-1.08-.52-1.55-.28-.47-.66-.88-1.11-1.21-.46-.34-.99-.6-1.6-.79-.61-.19-1.27-.28-1.97-.28s-1.37.09-1.98.28-1.15.45-1.61.79-.83.74-1.12,1.21c-.29.47-.46.99-.51,1.55h10.42Z"/><path d="m477.53,297.28l-2.91-2.3c-.59.43-1.21.81-1.87,1.13s-1.35.6-2.06.82c-.71.22-1.44.39-2.19.5s-1.5.17-2.26.17c-.92,0-1.79-.05-2.58-.16-.79-.11-1.52-.27-2.18-.49s-1.24-.48-1.75-.79c-.51-.31-.94-.67-1.28-1.08s-.61-.85-.79-1.35c-.18-.49-.27-1.03-.27-1.6,0-.49.07-.95.22-1.38.15-.43.36-.83.62-1.2.26-.37.58-.72.95-1.04.37-.32.77-.62,1.21-.91s.9-.55,1.39-.79c.49-.24,1-.47,1.52-.69l.06-.03-.37-.31c-.43-.34-.84-.69-1.23-1.05-.39-.36-.72-.73-1.01-1.1s-.51-.77-.68-1.18c-.17-.41-.25-.84-.25-1.29,0-.49.07-.95.2-1.36.13-.42.33-.79.58-1.12s.57-.63.94-.88c.37-.25.8-.46,1.27-.64.48-.17,1.01-.3,1.58-.38.58-.08,1.2-.13,1.87-.13,1.01,0,1.92.09,2.71.28.79.19,1.47.46,2.02.83.55.37.97.84,1.25,1.41s.43,1.23.43,2c0,.6-.13,1.15-.4,1.65-.27.51-.62.97-1.08,1.41-.45.43-.97.83-1.57,1.19s-1.22.69-1.88.99l-.17.08,6.97,5.46c.38-.43.71-.89,1.01-1.39.29-.5.54-1.02.75-1.58.2-.56.36-1.14.46-1.74.11-.61.16-1.23.16-1.87v-.81h4.85v2.19h-2.32c-.08.67-.2,1.31-.38,1.93-.17.62-.39,1.2-.65,1.76-.26.56-.56,1.09-.89,1.58-.33.5-.7.96-1.1,1.39l4.96,3.86h-3.86Zm-12.29-9.69l-.64.28c-.6.27-1.16.55-1.69.84-.52.29-.97.6-1.36.94-.39.33-.69.7-.91,1.09-.22.39-.33.83-.33,1.3,0,.45.12.87.34,1.27.23.4.59.75,1.07,1.04s1.1.53,1.85.7,1.64.26,2.67.26c.63,0,1.24-.04,1.83-.11.6-.08,1.17-.19,1.71-.34s1.07-.34,1.56-.56c.49-.22.96-.48,1.39-.78l-7.51-5.93Zm1.26-2.8c.54-.23,1.02-.48,1.44-.74.42-.26.78-.54,1.08-.83.29-.29.52-.6.67-.93.15-.33.23-.67.23-1.02,0-.45-.1-.82-.3-1.13-.2-.31-.47-.56-.8-.74-.34-.19-.72-.33-1.16-.41-.44-.08-.9-.12-1.37-.12s-.94.04-1.37.12-.83.22-1.16.41c-.34.19-.61.44-.81.74-.2.31-.3.69-.3,1.13,0,.2.04.41.11.63.08.22.19.46.36.7.16.24.37.49.62.75.25.26.55.53.9.8l1.18.95.7-.31Z"/><path d="m520.85,297.28v-8.71c0-.72-.1-1.32-.29-1.8-.19-.49-.48-.88-.86-1.17-.38-.3-.85-.51-1.42-.64-.57-.13-1.22-.19-1.97-.19-.56,0-1.11.04-1.65.13-.54.09-1.05.21-1.54.36-.49.15-.94.32-1.36.52-.42.2-.78.4-1.1.62.05.25.1.52.14.81s.05.59.05.9v9.18h-2.77v-8.71c0-.72-.1-1.32-.29-1.8-.19-.49-.48-.88-.86-1.17-.38-.3-.85-.51-1.42-.64-.56-.13-1.22-.19-1.98-.19-.54,0-1.07.04-1.58.12-.52.08-1.01.19-1.48.33-.47.14-.91.3-1.32.48s-.77.38-1.09.58v11.01h-2.78v-14.36h2.32l.23,1.43c.36-.26.76-.5,1.23-.71.46-.22.96-.4,1.5-.56.54-.16,1.11-.28,1.71-.36.6-.09,1.22-.13,1.86-.13.6,0,1.18.04,1.74.12.56.08,1.09.2,1.59.38.5.17.95.4,1.37.68.41.28.77.62,1.07,1.03.34-.3.76-.58,1.27-.85.5-.27,1.06-.5,1.67-.71.61-.2,1.26-.36,1.95-.48.69-.12,1.4-.17,2.12-.17.6,0,1.19.04,1.75.11.57.07,1.1.2,1.6.37s.95.4,1.37.68.77.62,1.07,1.03.53.89.69,1.44.25,1.18.25,1.89v9.18h-2.77Z"/><path d="m537.09,297.61c-1.01,0-1.92-.09-2.74-.26s-1.55-.42-2.19-.74c-.64-.32-1.19-.7-1.66-1.15-.47-.45-.85-.96-1.16-1.51-.3-.56-.53-1.16-.68-1.81s-.22-1.34-.22-2.06.08-1.38.23-2.03.38-1.25.69-1.8.7-1.06,1.17-1.51c.47-.45,1.03-.84,1.67-1.16.64-.32,1.37-.57,2.18-.74.81-.17,1.72-.26,2.71-.26s1.92.09,2.74.26,1.55.42,2.19.73c.64.32,1.2.7,1.67,1.15s.86.96,1.16,1.51c.3.56.53,1.16.68,1.82.15.65.22,1.33.22,2.05s-.08,1.39-.23,2.04-.38,1.25-.69,1.8-.7,1.06-1.17,1.51c-.47.45-1.03.84-1.67,1.16-.64.32-1.37.57-2.18.74s-1.72.26-2.71.26Zm0-2.15c.99,0,1.86-.13,2.58-.38.73-.25,1.33-.61,1.81-1.08.48-.46.83-1.03,1.06-1.68.23-.66.35-1.4.35-2.21s-.12-1.55-.35-2.21c-.23-.66-.58-1.23-1.06-1.7-.48-.47-1.08-.83-1.81-1.09s-1.59-.38-2.58-.38-1.85.13-2.58.38c-.73.25-1.33.61-1.8,1.08-.48.46-.83,1.03-1.06,1.69-.23.66-.35,1.39-.35,2.2s.12,1.55.35,2.21c.23.66.59,1.23,1.06,1.7.48.47,1.08.83,1.8,1.09.73.25,1.59.38,2.58.38Z"/><path d="m550.86,297.28v-20.28h2.78v7.03c.34-.22.72-.42,1.14-.59s.87-.33,1.34-.46c.47-.13.96-.23,1.48-.3.51-.07,1.03-.11,1.56-.11,1.27,0,2.41.17,3.44.5s1.9.82,2.62,1.46c.72.64,1.28,1.42,1.67,2.36.39.93.59,1.99.59,3.19s-.19,2.22-.57,3.15-.94,1.72-1.66,2.37c-.73.65-1.62,1.15-2.67,1.49-1.05.35-2.24.52-3.58.52-.55,0-1.08-.03-1.61-.1-.53-.07-1.03-.16-1.51-.29-.48-.13-.93-.29-1.35-.47s-.79-.4-1.12-.65l-.2,1.18h-2.32Zm2.78-3.19c.34.22.7.42,1.08.59.38.17.78.32,1.19.44.41.12.85.21,1.29.28s.91.1,1.39.1c.97,0,1.83-.12,2.58-.35.75-.23,1.38-.57,1.89-1.03.51-.45.89-1.02,1.16-1.69.26-.67.39-1.46.39-2.34s-.13-1.67-.39-2.33c-.26-.67-.65-1.22-1.16-1.66-.51-.44-1.14-.77-1.89-1-.75-.22-1.61-.33-2.58-.33-.48,0-.94.03-1.39.1s-.88.16-1.29.28c-.41.12-.81.27-1.19.44-.38.17-.74.37-1.08.59v7.92Z"/><path d="m572.58,280.03v-3.03h2.78v3.03h-2.78Zm0,17.25v-14.36h2.78v14.36h-2.78Z"/><path d="m588.85,297.17c-.2.05-.41.11-.65.16-.24.05-.49.1-.77.14-.28.04-.57.08-.89.1-.32.03-.66.04-1.03.04-.71,0-1.32-.08-1.81-.24s-.89-.39-1.19-.7c-.3-.31-.52-.7-.66-1.16-.13-.46-.2-.99-.2-1.6v-16.91h2.77v16.58c0,.29.02.54.07.75.05.22.14.4.27.54.13.15.31.25.54.33s.52.11.89.11c.56,0,1.07-.03,1.51-.08s.83-.12,1.15-.21v2.13Z"/><path d="m606.05,296.3c-.41.19-.84.36-1.3.52-.46.16-.96.3-1.49.42-.54.12-1.11.21-1.73.27-.62.07-1.29.1-2.01.1-.94,0-1.81-.09-2.59-.26-.78-.17-1.48-.42-2.11-.75s-1.17-.72-1.63-1.18-.85-.98-1.16-1.55c-.31-.57-.54-1.19-.7-1.87-.16-.67-.23-1.38-.23-2.13,0-.68.08-1.34.24-1.97s.39-1.21.7-1.75c.31-.54.69-1.03,1.15-1.47s.98-.82,1.57-1.13c.59-.31,1.25-.55,1.98-.72.73-.17,1.51-.26,2.36-.26s1.61.08,2.32.24c.71.16,1.37.38,1.96.68.59.29,1.11.65,1.56,1.07.45.42.83.88,1.14,1.4.31.52.54,1.08.7,1.69s.24,1.25.24,1.93c0,.09,0,.19,0,.29,0,.1,0,.2-.01.3,0,.1-.01.19-.02.28,0,.09-.01.16-.02.23h-13.1c.05.72.21,1.36.47,1.94s.64,1.07,1.13,1.48,1.1.73,1.82.95c.72.22,1.57.33,2.53.33.69,0,1.33-.04,1.9-.11.58-.07,1.11-.17,1.61-.28.5-.12.97-.25,1.41-.41s.87-.32,1.29-.49v2.21Zm-1.74-7.76c-.06-.57-.24-1.08-.52-1.55-.28-.47-.66-.88-1.11-1.21-.46-.34-.99-.6-1.6-.79-.61-.19-1.27-.28-1.97-.28s-1.37.09-1.98.28-1.15.45-1.61.79-.83.74-1.12,1.21c-.29.47-.46.99-.51,1.55h10.42Z"/><path d="m440.39,330.88l-3.83-9.15c-.15-.38-.31-.76-.47-1.14-.16-.38-.32-.75-.48-1.13-.16.38-.32.76-.48,1.16-.16.39-.32.78-.48,1.17l-3.75,9.1h-2.57l-6.72-14.36h3.02l4.01,9.15c.17.38.34.77.5,1.15.17.38.33.77.5,1.15.15-.38.31-.77.47-1.15.16-.38.32-.77.48-1.15l3.78-9.15h2.58l3.86,9.15c.15.38.31.76.48,1.13s.32.75.48,1.13c.17-.38.33-.76.49-1.13.16-.37.32-.75.49-1.13l3.98-9.15h2.97l-6.72,14.36h-2.58Z"/><path d="m460.41,331.21c-1.01,0-1.92-.09-2.74-.26s-1.55-.42-2.19-.74c-.64-.32-1.19-.7-1.66-1.15-.47-.45-.85-.96-1.16-1.51-.31-.56-.53-1.16-.68-1.81s-.22-1.34-.22-2.06.08-1.38.23-2.03.38-1.25.69-1.8.7-1.06,1.17-1.51c.47-.45,1.03-.84,1.67-1.16.64-.32,1.37-.57,2.18-.74.81-.17,1.72-.26,2.71-.26s1.92.09,2.74.26,1.55.42,2.19.73c.64.32,1.2.7,1.66,1.15s.86.96,1.16,1.51c.3.56.53,1.16.68,1.82.15.65.22,1.33.22,2.05s-.08,1.39-.23,2.04-.38,1.25-.69,1.8-.7,1.06-1.17,1.51c-.47.45-1.03.84-1.67,1.16-.64.32-1.37.57-2.18.74s-1.72.26-2.71.26Zm0-2.15c.99,0,1.85-.13,2.58-.38.73-.25,1.33-.61,1.81-1.08.48-.46.83-1.03,1.06-1.68.23-.66.34-1.4.34-2.21s-.12-1.55-.34-2.21c-.23-.66-.58-1.23-1.06-1.7-.48-.47-1.08-.83-1.81-1.09s-1.59-.38-2.58-.38-1.85.13-2.58.38c-.73.25-1.33.61-1.8,1.08-.48.46-.83,1.03-1.06,1.69-.23.66-.35,1.39-.35,2.2s.12,1.55.35,2.21c.23.66.59,1.23,1.06,1.7.48.47,1.08.83,1.8,1.09.73.25,1.59.38,2.58.38Z"/><path d="m474.18,330.88v-14.36h2.5l.22,2.6c.25-.37.54-.73.87-1.08.33-.35.72-.66,1.16-.92.44-.27.94-.48,1.5-.64.56-.16,1.18-.24,1.88-.24.52,0,1,.03,1.43.1.44.06.81.15,1.12.27v2.46c-.21-.05-.42-.1-.65-.14-.23-.04-.46-.08-.71-.11-.24-.03-.49-.05-.75-.07-.26-.01-.52-.02-.78-.02-.5,0-.96.05-1.37.14-.41.09-.79.21-1.12.36-.34.15-.64.32-.91.52-.27.2-.5.4-.7.61-.2.21-.38.41-.53.62s-.28.39-.38.57v9.35h-2.78Z"/><path d="m500.3,330.88l-8.73-6.55v6.55h-2.78v-20.28h2.78v12.21l8.62-6.3h3.81l-8,5.77c-.15.1-.29.21-.44.31s-.29.2-.43.3c-.14.1-.29.21-.43.31-.14.1-.29.21-.43.31.14.1.28.19.41.29s.27.19.4.28c.13.09.27.19.4.28s.27.19.41.29l8.63,6.21h-4.2Z"/><path d="m679.06,297.28l-5.43-13.3c-.11-.28-.23-.55-.34-.83-.11-.28-.23-.55-.34-.83-.12-.28-.23-.55-.35-.83-.11-.28-.23-.55-.34-.84-.11.28-.22.56-.33.84-.11.28-.22.55-.34.83s-.23.55-.34.83c-.11.28-.22.55-.33.83l-5.43,13.3h-2.94l-8.76-20.28h3.17l5.68,13.69c.12.29.24.57.36.86.12.28.24.57.36.85.12.28.24.57.36.85.12.29.24.57.36.86.11-.29.23-.57.34-.86.11-.28.23-.57.35-.85.12-.28.23-.57.34-.85.11-.29.23-.57.34-.86l5.49-13.69h2.71l5.54,13.84c.11.29.22.57.34.86.12.29.23.57.35.86.12.29.23.57.36.86.12.29.24.57.36.86.12-.29.24-.57.36-.86.12-.29.24-.57.37-.86l.37-.86c.12-.29.24-.57.36-.86l5.76-13.84h2.97l-8.76,20.28h-2.95Z"/><path d="m700.42,297.61c-1.01,0-1.92-.09-2.74-.26s-1.55-.42-2.19-.74c-.64-.32-1.19-.7-1.66-1.15-.47-.45-.85-.96-1.16-1.51-.3-.56-.53-1.16-.68-1.81s-.22-1.34-.22-2.06.08-1.38.23-2.03.38-1.25.69-1.8.7-1.06,1.17-1.51c.47-.45,1.03-.84,1.67-1.16.64-.32,1.37-.57,2.18-.74.81-.17,1.72-.26,2.71-.26s1.92.09,2.74.26,1.55.42,2.19.73c.64.32,1.2.7,1.67,1.15s.86.96,1.16,1.51c.3.56.53,1.16.68,1.82.15.65.22,1.33.22,2.05s-.08,1.39-.23,2.04-.38,1.25-.69,1.8-.7,1.06-1.17,1.51c-.47.45-1.03.84-1.67,1.16-.64.32-1.37.57-2.18.74s-1.72.26-2.71.26Zm0-2.15c.99,0,1.86-.13,2.58-.38.73-.25,1.33-.61,1.81-1.08.48-.46.83-1.03,1.06-1.68.23-.66.35-1.4.35-2.21s-.12-1.55-.35-2.21c-.23-.66-.58-1.23-1.06-1.7-.48-.47-1.08-.83-1.81-1.09s-1.59-.38-2.58-.38-1.85.13-2.58.38c-.73.25-1.33.61-1.8,1.08-.48.46-.83,1.03-1.06,1.69-.23.66-.35,1.39-.35,2.2s.12,1.55.35,2.21c.23.66.59,1.23,1.06,1.7.48.47,1.08.83,1.8,1.09.73.25,1.59.38,2.58.38Z"/><path d="m714.19,297.28v-14.36h2.5l.22,2.6c.25-.37.54-.73.87-1.08.33-.35.72-.66,1.16-.92.44-.27.94-.48,1.5-.64.56-.16,1.18-.24,1.88-.24.52,0,1,.03,1.43.1.43.06.81.15,1.12.27v2.46c-.21-.05-.42-.1-.65-.14-.22-.04-.46-.08-.7-.11-.24-.03-.5-.05-.75-.07-.26-.01-.52-.02-.78-.02-.5,0-.96.05-1.37.14-.41.09-.79.21-1.12.36-.34.15-.64.32-.91.52-.27.2-.5.4-.71.61-.2.21-.38.41-.53.62s-.28.39-.38.57v9.35h-2.78Z"/><path d="m740.31,297.28l-8.73-6.55v6.55h-2.78v-20.28h2.78v12.21l8.62-6.3h3.81l-8,5.77c-.15.1-.29.21-.44.31s-.29.2-.43.3c-.14.1-.29.21-.43.31-.14.1-.29.21-.43.31.14.1.28.19.41.29s.27.19.4.28c.13.09.27.19.4.28s.27.19.41.29l8.63,6.21h-4.2Z"/><path d="m770.7,296.3c-.41.19-.84.36-1.3.52-.46.16-.96.3-1.49.42-.54.12-1.11.21-1.73.27-.62.07-1.29.1-2.01.1-.94,0-1.81-.09-2.59-.26-.78-.17-1.48-.42-2.11-.75s-1.17-.72-1.63-1.18-.85-.98-1.16-1.55c-.31-.57-.54-1.19-.7-1.87-.15-.67-.23-1.38-.23-2.13,0-.68.08-1.34.24-1.97s.39-1.21.7-1.75c.31-.54.69-1.03,1.15-1.47s.98-.82,1.57-1.13c.59-.31,1.25-.55,1.98-.72.73-.17,1.51-.26,2.36-.26s1.61.08,2.32.24c.72.16,1.37.38,1.96.68.59.29,1.11.65,1.56,1.07.45.42.83.88,1.14,1.4.31.52.54,1.08.7,1.69s.24,1.25.24,1.93c0,.09,0,.19,0,.29,0,.1,0,.2-.01.3,0,.1-.01.19-.02.28,0,.09-.01.16-.02.23h-13.1c.05.72.21,1.36.47,1.94s.64,1.07,1.13,1.48,1.1.73,1.82.95c.72.22,1.57.33,2.53.33.69,0,1.33-.04,1.9-.11.58-.07,1.12-.17,1.61-.28.5-.12.97-.25,1.41-.41s.87-.32,1.29-.49v2.21Zm-1.74-7.76c-.06-.57-.24-1.08-.52-1.55-.29-.47-.66-.88-1.12-1.21-.46-.34-.99-.6-1.6-.79-.61-.19-1.27-.28-1.97-.28s-1.36.09-1.98.28-1.15.45-1.61.79-.83.74-1.12,1.21c-.28.47-.45.99-.51,1.55h10.42Z"/><path d="m787.41,297.28l-5.18-5.57-5.2,5.57h-3.45l7-7.31-6.78-7.05h3.59l4.87,5.29,4.93-5.29h3.45l-6.72,7.03,7.08,7.33h-3.58Z"/><path d="m794.72,303.18v-20.27h2.32l.2,1.26c.35-.23.74-.45,1.17-.64.44-.19.9-.36,1.39-.5.5-.14,1.01-.25,1.55-.33.54-.08,1.09-.12,1.65-.12,1.27,0,2.41.17,3.44.5s1.9.82,2.62,1.46c.72.64,1.28,1.42,1.67,2.36.39.93.59,1.99.59,3.19s-.19,2.22-.57,3.15-.94,1.72-1.66,2.37c-.73.65-1.62,1.15-2.67,1.49-1.05.35-2.24.52-3.58.52-.52,0-1.03-.03-1.52-.09s-.97-.14-1.43-.26c-.46-.11-.89-.25-1.29-.42-.4-.17-.77-.36-1.1-.58v6.91h-2.78Zm2.78-9.15c.34.22.7.42,1.08.59.38.17.78.32,1.19.44.41.12.85.21,1.29.28s.91.1,1.39.1c.97,0,1.83-.11,2.58-.33.75-.22,1.38-.56,1.89-1,.51-.45.89-1,1.16-1.67.26-.67.39-1.45.39-2.34s-.13-1.67-.39-2.34c-.26-.67-.65-1.23-1.16-1.68-.51-.45-1.14-.79-1.89-1.01-.75-.23-1.61-.34-2.58-.34-.48,0-.94.03-1.39.1s-.88.16-1.29.28c-.41.12-.81.27-1.19.44-.38.17-.74.37-1.08.59v7.92Z"/><path d="m830.08,296.3c-.41.19-.84.36-1.3.52-.46.16-.96.3-1.49.42-.54.12-1.11.21-1.73.27-.62.07-1.29.1-2.01.1-.94,0-1.81-.09-2.59-.26-.78-.17-1.48-.42-2.11-.75s-1.17-.72-1.63-1.18-.85-.98-1.16-1.55c-.31-.57-.54-1.19-.7-1.87-.16-.67-.23-1.38-.23-2.13,0-.68.08-1.34.24-1.97s.39-1.21.7-1.75c.31-.54.69-1.03,1.15-1.47s.98-.82,1.57-1.13c.59-.31,1.25-.55,1.98-.72.73-.17,1.51-.26,2.36-.26s1.61.08,2.32.24c.71.16,1.37.38,1.96.68.59.29,1.11.65,1.56,1.07.45.42.83.88,1.14,1.4.31.52.54,1.08.7,1.69s.24,1.25.24,1.93c0,.09,0,.19,0,.29,0,.1,0,.2-.01.3,0,.1-.01.19-.02.28,0,.09-.01.16-.02.23h-13.1c.05.72.21,1.36.47,1.94s.64,1.07,1.13,1.48,1.1.73,1.82.95c.72.22,1.57.33,2.53.33.69,0,1.33-.04,1.9-.11.58-.07,1.11-.17,1.61-.28.5-.12.97-.25,1.41-.41s.87-.32,1.29-.49v2.21Zm-1.74-7.76c-.06-.57-.24-1.08-.52-1.55-.28-.47-.66-.88-1.11-1.21-.46-.34-.99-.6-1.6-.79-.61-.19-1.27-.28-1.97-.28s-1.37.09-1.98.28-1.15.45-1.61.79-.83.74-1.12,1.21c-.29.47-.46.99-.51,1.55h10.42Z"/><path d="m836.02,297.28v-14.36h2.5l.22,2.6c.25-.37.54-.73.87-1.08.33-.35.72-.66,1.16-.92.44-.27.94-.48,1.5-.64.56-.16,1.18-.24,1.88-.24.52,0,1,.03,1.43.1.44.06.81.15,1.12.27v2.46c-.21-.05-.42-.1-.65-.14-.23-.04-.46-.08-.71-.11-.24-.03-.49-.05-.75-.07-.26-.01-.52-.02-.78-.02-.5,0-.96.05-1.37.14-.41.09-.79.21-1.12.36-.34.15-.64.32-.91.52-.27.2-.5.4-.7.61-.2.21-.38.41-.53.62s-.28.39-.38.57v9.35h-2.78Z"/><path d="m850.63,280.03v-3.03h2.78v3.03h-2.78Zm0,17.25v-14.36h2.78v14.36h-2.78Z"/><path d="m873.48,296.3c-.41.19-.84.36-1.3.52-.46.16-.96.3-1.49.42-.54.12-1.11.21-1.73.27-.62.07-1.29.1-2.01.1-.94,0-1.81-.09-2.59-.26-.78-.17-1.48-.42-2.11-.75s-1.17-.72-1.63-1.18-.85-.98-1.16-1.55c-.31-.57-.54-1.19-.7-1.87-.15-.67-.23-1.38-.23-2.13,0-.68.08-1.34.24-1.97s.39-1.21.7-1.75c.31-.54.69-1.03,1.15-1.47s.98-.82,1.57-1.13c.59-.31,1.25-.55,1.98-.72.73-.17,1.51-.26,2.36-.26s1.61.08,2.32.24c.72.16,1.37.38,1.96.68.59.29,1.11.65,1.56,1.07.45.42.83.88,1.14,1.4.31.52.54,1.08.7,1.69s.24,1.25.24,1.93c0,.09,0,.19,0,.29,0,.1,0,.2-.01.3,0,.1-.01.19-.02.28,0,.09-.01.16-.02.23h-13.1c.05.72.21,1.36.47,1.94s.64,1.07,1.13,1.48,1.1.73,1.82.95c.72.22,1.57.33,2.53.33.69,0,1.33-.04,1.9-.11.58-.07,1.12-.17,1.61-.28.5-.12.97-.25,1.41-.41s.87-.32,1.29-.49v2.21Zm-1.74-7.76c-.06-.57-.24-1.08-.52-1.55-.29-.47-.66-.88-1.12-1.21-.46-.34-.99-.6-1.6-.79-.61-.19-1.27-.28-1.97-.28s-1.36.09-1.98.28-1.15.45-1.61.79-.83.74-1.12,1.21c-.28.47-.45.99-.51,1.55h10.42Z"/><path d="m892.21,297.28v-8.71c0-.72-.1-1.32-.29-1.8-.19-.49-.48-.88-.86-1.17-.38-.3-.85-.51-1.42-.64-.56-.13-1.22-.19-1.98-.19-.54,0-1.07.04-1.58.12-.52.08-1.01.19-1.48.33-.47.14-.91.3-1.32.48s-.77.38-1.09.58v11.01h-2.78v-14.36h2.32l.23,1.43c.36-.26.76-.5,1.23-.71.46-.22.96-.4,1.5-.56.54-.16,1.11-.28,1.71-.36.6-.09,1.22-.13,1.86-.13.6,0,1.19.04,1.75.11.57.07,1.1.2,1.6.37s.95.4,1.37.68.77.62,1.07,1.03.53.89.69,1.44.25,1.18.25,1.89v9.18h-2.77Z"/><path d="m913.71,296.52c-.34.15-.7.29-1.09.42s-.81.25-1.27.35-.98.18-1.56.24c-.57.06-1.22.09-1.94.09-1.27,0-2.4-.18-3.4-.54s-1.84-.87-2.53-1.52c-.69-.66-1.22-1.45-1.58-2.38-.36-.93-.55-1.96-.55-3.09,0-.71.08-1.39.23-2.04.16-.65.39-1.25.7-1.81.31-.56.71-1.06,1.18-1.51.47-.45,1.03-.83,1.66-1.15.63-.32,1.35-.56,2.15-.73.8-.17,1.68-.26,2.65-.26.48,0,.96.02,1.45.06.48.04.94.11,1.39.19.44.08.86.17,1.25.28.39.11.74.23,1.04.36v2.26c-.31-.12-.67-.24-1.05-.35-.39-.11-.8-.21-1.24-.29-.44-.08-.9-.15-1.39-.2-.49-.05-.98-.08-1.49-.08-1,0-1.86.13-2.57.38-.71.25-1.3.61-1.76,1.08-.46.46-.79,1.02-1.01,1.66-.21.65-.32,1.36-.32,2.14,0,.86.13,1.62.39,2.28.26.66.63,1.21,1.11,1.66s1.06.78,1.73,1.01,1.43.34,2.26.34c.64,0,1.23-.04,1.77-.11.54-.07,1.05-.16,1.51-.27.46-.11.88-.24,1.26-.38.38-.14.72-.28,1.03-.42v2.32Z"/><path d="m932.31,296.3c-.41.19-.84.36-1.3.52-.46.16-.96.3-1.49.42-.54.12-1.11.21-1.73.27-.62.07-1.29.1-2.01.1-.94,0-1.81-.09-2.59-.26-.78-.17-1.48-.42-2.11-.75s-1.17-.72-1.63-1.18-.85-.98-1.16-1.55c-.31-.57-.54-1.19-.7-1.87-.16-.67-.23-1.38-.23-2.13,0-.68.08-1.34.24-1.97s.39-1.21.7-1.75c.31-.54.69-1.03,1.15-1.47s.98-.82,1.57-1.13c.59-.31,1.25-.55,1.98-.72.73-.17,1.51-.26,2.36-.26s1.61.08,2.32.24c.71.16,1.37.38,1.96.68.59.29,1.11.65,1.56,1.07.45.42.83.88,1.14,1.4.31.52.54,1.08.7,1.69s.24,1.25.24,1.93c0,.09,0,.19,0,.29,0,.1,0,.2-.01.3,0,.1-.01.19-.02.28,0,.09-.01.16-.02.23h-13.1c.05.72.21,1.36.47,1.94s.64,1.07,1.13,1.48,1.1.73,1.82.95c.72.22,1.57.33,2.53.33.69,0,1.33-.04,1.9-.11.58-.07,1.11-.17,1.61-.28.5-.12.97-.25,1.41-.41s.87-.32,1.29-.49v2.21Zm-1.74-7.76c-.06-.57-.24-1.08-.52-1.55-.28-.47-.66-.88-1.11-1.21-.46-.34-.99-.6-1.6-.79-.61-.19-1.27-.28-1.97-.28s-1.37.09-1.98.28-1.15.45-1.61.79-.83.74-1.12,1.21c-.29.47-.46.99-.51,1.55h10.42Z"/><path d="m749.6,330.88l-.23-1.32c-.35.25-.75.48-1.19.69-.44.2-.92.38-1.44.52-.52.14-1.07.25-1.65.33s-1.19.12-1.82.12c-.9,0-1.73-.09-2.5-.26-.77-.18-1.45-.44-2.02-.8-.57-.36-1.02-.81-1.35-1.35-.33-.54-.49-1.17-.49-1.9,0-.47.07-.91.22-1.32s.37-.77.67-1.1c.3-.33.69-.62,1.16-.87.47-.25,1.03-.46,1.69-.64.65-.17,1.4-.3,2.24-.39.84-.09,1.78-.13,2.82-.13.39,0,.79,0,1.2.02.41.01.79.03,1.15.04.36.02.72.03,1.09.05v-.5c0-.59-.09-1.11-.27-1.56-.18-.45-.46-.83-.85-1.14-.38-.31-.88-.54-1.48-.7s-1.32-.24-2.16-.24c-.72,0-1.36.02-1.93.07-.57.05-1.09.12-1.57.21-.48.09-.92.2-1.34.33s-.84.28-1.26.45v-2.15c.38-.17.79-.32,1.22-.46.43-.14.91-.26,1.43-.36s1.08-.18,1.7-.24c.61-.06,1.28-.09,2.01-.09,1.08,0,2.07.11,2.97.34.89.23,1.66.57,2.3,1.02.64.46,1.13,1.03,1.49,1.72s.53,1.5.53,2.43v9.18h-2.32Zm-.45-6.38h-2.77c-1.2,0-2.22.04-3.05.13-.84.09-1.52.22-2.05.41-.53.18-.91.42-1.15.71-.24.29-.36.64-.36,1.05,0,.37.08.7.23.98.15.29.39.53.72.72.33.19.74.34,1.25.44.51.1,1.12.15,1.83.15.55,0,1.08-.03,1.6-.1.51-.06.99-.16,1.45-.28.45-.12.87-.27,1.26-.44s.74-.37,1.05-.59v-3.19Z"/><path d="m758.06,330.88v-20.28h2.78v7.03c.34-.22.72-.42,1.14-.59s.86-.33,1.34-.46c.47-.13.96-.23,1.48-.3.51-.07,1.03-.11,1.55-.11,1.27,0,2.41.17,3.44.5s1.9.82,2.62,1.46c.72.64,1.28,1.42,1.67,2.36.39.93.59,1.99.59,3.19s-.19,2.22-.57,3.15-.94,1.72-1.67,2.37c-.73.65-1.62,1.15-2.67,1.49-1.05.35-2.24.52-3.58.52-.55,0-1.08-.03-1.61-.1-.53-.07-1.03-.16-1.51-.29-.48-.13-.93-.29-1.35-.47s-.79-.4-1.12-.65l-.2,1.18h-2.32Zm2.78-3.19c.34.22.7.42,1.08.59.38.17.78.32,1.19.44.42.12.84.21,1.29.28s.91.1,1.39.1c.97,0,1.83-.12,2.58-.35.75-.23,1.38-.57,1.89-1.03.51-.45.89-1.02,1.15-1.69.26-.67.39-1.46.39-2.34s-.13-1.67-.39-2.33c-.26-.67-.65-1.22-1.15-1.66-.51-.44-1.14-.77-1.89-1-.75-.22-1.61-.33-2.58-.33-.48,0-.94.03-1.39.1s-.88.16-1.29.28c-.42.12-.81.27-1.19.44-.38.17-.74.37-1.08.59v7.92Z"/><path d="m779.78,330.88v-14.36h2.5l.22,2.6c.25-.37.54-.73.87-1.08.33-.35.72-.66,1.16-.92.44-.27.94-.48,1.5-.64.56-.16,1.18-.24,1.88-.24.52,0,1,.03,1.43.1.44.06.81.15,1.12.27v2.46c-.21-.05-.42-.1-.65-.14-.23-.04-.46-.08-.71-.11-.24-.03-.49-.05-.75-.07-.26-.01-.52-.02-.78-.02-.5,0-.96.05-1.37.14-.41.09-.79.21-1.12.36-.34.15-.64.32-.91.52-.27.2-.5.4-.7.61-.2.21-.38.41-.53.62s-.28.39-.38.57v9.35h-2.78Z"/><path d="m801.45,331.21c-1.01,0-1.92-.09-2.74-.26s-1.55-.42-2.19-.74c-.64-.32-1.19-.7-1.66-1.15-.47-.45-.85-.96-1.16-1.51-.3-.56-.53-1.16-.68-1.81s-.22-1.34-.22-2.06.08-1.38.23-2.03.38-1.25.69-1.8.7-1.06,1.17-1.51c.47-.45,1.03-.84,1.67-1.16.64-.32,1.37-.57,2.18-.74.81-.17,1.72-.26,2.71-.26s1.92.09,2.74.26,1.55.42,2.19.73c.64.32,1.2.7,1.67,1.15s.86.96,1.16,1.51c.3.56.53,1.16.68,1.82.15.65.22,1.33.22,2.05s-.08,1.39-.23,2.04-.38,1.25-.69,1.8-.7,1.06-1.17,1.51c-.47.45-1.03.84-1.67,1.16-.64.32-1.37.57-2.18.74s-1.72.26-2.71.26Zm0-2.15c.99,0,1.86-.13,2.58-.38.73-.25,1.33-.61,1.81-1.08.48-.46.83-1.03,1.06-1.68.23-.66.35-1.4.35-2.21s-.12-1.55-.35-2.21c-.23-.66-.58-1.23-1.06-1.7-.48-.47-1.08-.83-1.81-1.09s-1.59-.38-2.58-.38-1.85.13-2.58.38c-.73.25-1.33.61-1.8,1.08-.48.46-.83,1.03-1.06,1.69-.23.66-.35,1.39-.35,2.2s.12,1.55.35,2.21c.23.66.59,1.23,1.06,1.7.48.47,1.08.83,1.8,1.09.73.25,1.59.38,2.58.38Z"/><path d="m826.88,330.88l-.23-1.32c-.35.25-.75.48-1.19.69-.44.2-.92.38-1.44.52-.52.14-1.07.25-1.65.33s-1.19.12-1.82.12c-.9,0-1.73-.09-2.5-.26-.77-.18-1.45-.44-2.02-.8-.57-.36-1.02-.81-1.35-1.35-.33-.54-.49-1.17-.49-1.9,0-.47.07-.91.22-1.32s.37-.77.67-1.1c.3-.33.69-.62,1.16-.87.47-.25,1.03-.46,1.69-.64.65-.17,1.4-.3,2.24-.39.84-.09,1.78-.13,2.82-.13.39,0,.79,0,1.2.02.41.01.79.03,1.15.04.36.02.72.03,1.09.05v-.5c0-.59-.09-1.11-.27-1.56-.18-.45-.46-.83-.85-1.14-.38-.31-.88-.54-1.48-.7s-1.32-.24-2.16-.24c-.72,0-1.36.02-1.93.07-.57.05-1.09.12-1.57.21-.48.09-.92.2-1.34.33s-.84.28-1.26.45v-2.15c.38-.17.79-.32,1.22-.46.43-.14.91-.26,1.43-.36s1.08-.18,1.7-.24c.61-.06,1.28-.09,2.01-.09,1.08,0,2.07.11,2.97.34.89.23,1.66.57,2.3,1.02.64.46,1.13,1.03,1.49,1.72s.53,1.5.53,2.43v9.18h-2.32Zm-.45-6.38h-2.77c-1.2,0-2.22.04-3.05.13-.84.09-1.52.22-2.05.41-.53.18-.91.42-1.15.71-.24.29-.36.64-.36,1.05,0,.37.08.7.23.98.15.29.39.53.72.72.33.19.74.34,1.25.44.51.1,1.12.15,1.83.15.55,0,1.08-.03,1.6-.1.51-.06.99-.16,1.45-.28.45-.12.87-.27,1.26-.44s.74-.37,1.05-.59v-3.19Z"/><path d="m848.29,330.88l-.22-1.26c-.34.23-.73.45-1.17.64-.43.19-.9.36-1.39.5s-1.01.25-1.55.33c-.54.08-1.09.12-1.64.12-1.27,0-2.41-.17-3.44-.5-1.02-.33-1.9-.82-2.62-1.47-.72-.64-1.28-1.43-1.67-2.37s-.59-2-.59-3.2.19-2.21.57-3.14c.38-.93.94-1.71,1.66-2.36s1.61-1.14,2.66-1.48c1.05-.34,2.25-.51,3.58-.51.51,0,1.01.03,1.51.09.5.06.97.14,1.43.26.46.11.89.25,1.29.42.41.17.78.36,1.12.58v-6.92h2.77v20.28h-2.32Zm-.44-11.14c-.34-.22-.7-.42-1.09-.59s-.78-.32-1.2-.44c-.42-.12-.84-.21-1.29-.28s-.91-.1-1.38-.1c-.97,0-1.83.11-2.58.33-.75.22-1.38.56-1.89,1s-.9,1-1.16,1.67c-.26.67-.39,1.45-.39,2.33s.13,1.67.39,2.34c.26.67.65,1.23,1.16,1.69s1.14.79,1.89,1.02c.75.22,1.61.34,2.58.34.47,0,.93-.03,1.38-.1s.88-.16,1.29-.28c.42-.12.81-.27,1.2-.44s.75-.37,1.09-.59v-7.92Z"/><path d="m1046.36,297.28v-20.28h7.64c1.42,0,2.67.12,3.75.37,1.08.24,1.98.6,2.7,1.08.72.48,1.27,1.07,1.64,1.77.37.7.55,1.52.55,2.44,0,.58-.08,1.1-.23,1.55-.15.45-.37.86-.65,1.2-.28.35-.62.65-1.03.9-.41.25-.86.46-1.38.63.68.17,1.29.4,1.82.67.53.27.98.6,1.35.98.37.38.65.82.84,1.32s.29,1.07.29,1.71-.08,1.18-.25,1.7-.41.99-.74,1.4c-.33.42-.73.79-1.21,1.1-.48.32-1.04.58-1.69.8-.64.21-1.36.37-2.16.48s-1.67.16-2.61.16h-8.65Zm7.03-11.26c1.03,0,1.94-.05,2.72-.16.78-.1,1.44-.29,1.97-.54.53-.26.93-.6,1.2-1.03.27-.43.41-.97.41-1.62s-.14-1.19-.41-1.62-.67-.77-1.2-1.03c-.53-.25-1.18-.43-1.97-.54-.78-.1-1.69-.15-2.72-.15h-4.15v6.69h4.15Zm1.01,8.93c1.03,0,1.94-.05,2.72-.15.78-.1,1.44-.28,1.97-.53.53-.25.93-.59,1.2-1.02s.41-.97.41-1.62-.14-1.19-.41-1.62c-.27-.43-.67-.77-1.2-1.03-.53-.26-1.19-.44-1.97-.55-.78-.11-1.69-.16-2.72-.16h-5.15v6.69h5.15Z"/><path d="m1080.6,297.28l-.23-1.32c-.35.25-.75.48-1.19.69-.44.2-.92.38-1.44.52-.52.14-1.07.25-1.65.33-.58.08-1.19.12-1.82.12-.9,0-1.73-.09-2.51-.26-.77-.18-1.45-.44-2.02-.8-.57-.36-1.02-.81-1.35-1.35-.33-.54-.49-1.17-.49-1.9,0-.47.07-.91.22-1.32.15-.41.37-.77.67-1.1s.69-.62,1.16-.87c.47-.25,1.03-.46,1.68-.64.65-.17,1.4-.3,2.24-.39.84-.09,1.78-.13,2.82-.13.39,0,.79,0,1.2.02.41.01.79.03,1.15.04.36.02.72.03,1.09.05v-.5c0-.59-.09-1.11-.27-1.56-.18-.45-.46-.83-.85-1.14-.39-.31-.88-.54-1.48-.7s-1.32-.24-2.16-.24c-.72,0-1.37.02-1.94.07-.57.05-1.09.12-1.57.21s-.92.2-1.34.33c-.42.13-.84.28-1.26.45v-2.15c.38-.17.79-.32,1.22-.46s.91-.26,1.43-.36,1.08-.18,1.7-.24c.61-.06,1.28-.09,2.01-.09,1.08,0,2.07.11,2.97.34.89.23,1.66.57,2.3,1.02s1.14,1.03,1.49,1.72c.35.69.53,1.5.53,2.43v9.18h-2.32Zm-.45-6.38h-2.77c-1.2,0-2.21.04-3.05.13s-1.52.22-2.05.41c-.53.18-.91.42-1.15.71s-.36.64-.36,1.05c0,.37.08.7.23.98s.39.53.72.72c.33.19.74.34,1.25.44s1.12.15,1.84.15c.55,0,1.08-.03,1.6-.1s.99-.16,1.45-.28c.45-.12.87-.27,1.26-.44.39-.17.74-.37,1.05-.59v-3.19Z"/><path d="m1096.11,297.17c-.2.05-.41.11-.65.16-.24.05-.49.1-.77.14-.28.04-.57.08-.89.1-.32.03-.66.04-1.03.04-.72,0-1.32-.08-1.81-.24s-.89-.39-1.19-.7-.52-.7-.66-1.16c-.13-.46-.2-.99-.2-1.6v-16.91h2.77v16.58c0,.29.02.54.07.75.05.22.14.4.27.54s.31.25.54.33c.23.07.52.11.89.11.56,0,1.07-.03,1.51-.08.44-.05.83-.12,1.15-.21v2.13Z"/><path d="m1111.31,297.28l-.22-1.32c-.35.25-.75.48-1.19.69-.44.2-.92.38-1.44.52-.52.14-1.07.25-1.65.33-.58.08-1.19.12-1.82.12-.9,0-1.73-.09-2.5-.26-.77-.18-1.44-.44-2.02-.8-.57-.36-1.02-.81-1.35-1.35-.33-.54-.49-1.17-.49-1.9,0-.47.07-.91.22-1.32.15-.41.37-.77.67-1.1s.69-.62,1.16-.87c.47-.25,1.03-.46,1.69-.64.65-.17,1.4-.3,2.23-.39.84-.09,1.78-.13,2.82-.13.39,0,.79,0,1.2.02.41.01.79.03,1.15.04.36.02.72.03,1.09.05v-.5c0-.59-.09-1.11-.27-1.56-.18-.45-.46-.83-.85-1.14-.38-.31-.88-.54-1.48-.7s-1.32-.24-2.16-.24c-.72,0-1.36.02-1.93.07-.57.05-1.09.12-1.57.21s-.92.2-1.34.33c-.42.13-.84.28-1.26.45v-2.15c.38-.17.79-.32,1.22-.46s.91-.26,1.43-.36,1.08-.18,1.7-.24c.61-.06,1.28-.09,2.01-.09,1.08,0,2.07.11,2.97.34.89.23,1.66.57,2.3,1.02s1.14,1.03,1.49,1.72c.35.69.53,1.5.53,2.43v9.18h-2.32Zm-.45-6.38h-2.77c-1.2,0-2.22.04-3.05.13s-1.52.22-2.05.41c-.53.18-.91.42-1.15.71s-.36.64-.36,1.05c0,.37.08.7.23.98s.39.53.72.72c.33.19.74.34,1.25.44s1.12.15,1.83.15c.55,0,1.08-.03,1.6-.1s1-.16,1.45-.28c.45-.12.87-.27,1.26-.44.39-.17.74-.37,1.04-.59v-3.19Z"/><path d="m1132.56,297.28v-8.71c0-.72-.1-1.32-.29-1.8-.19-.49-.48-.88-.86-1.17s-.85-.51-1.42-.64c-.56-.13-1.22-.19-1.97-.19-.54,0-1.07.04-1.58.12s-1.01.19-1.48.33-.91.3-1.32.48-.78.38-1.09.58v11.01h-2.78v-14.36h2.32l.22,1.43c.36-.26.77-.5,1.23-.71.46-.22.96-.4,1.5-.56s1.11-.28,1.71-.36,1.22-.13,1.86-.13c.6,0,1.19.04,1.75.11.57.07,1.1.2,1.6.37.5.17.95.4,1.37.68.41.28.77.62,1.07,1.03.3.41.53.89.69,1.44s.25,1.18.25,1.89v9.18h-2.77Z"/><path d="m1154.06,296.52c-.34.15-.7.29-1.09.42s-.81.25-1.27.35-.98.18-1.56.24-1.22.09-1.94.09c-1.27,0-2.4-.18-3.4-.54s-1.84-.87-2.53-1.52-1.22-1.45-1.58-2.38c-.37-.93-.55-1.96-.55-3.09,0-.71.08-1.39.23-2.04.15-.65.39-1.25.7-1.81s.7-1.06,1.18-1.51c.47-.45,1.02-.83,1.66-1.15.63-.32,1.35-.56,2.15-.73s1.68-.26,2.65-.26c.48,0,.96.02,1.45.06.48.04.94.11,1.39.19.44.08.86.17,1.25.28s.74.23,1.04.36v2.26c-.31-.12-.67-.24-1.05-.35-.39-.11-.8-.21-1.24-.29-.44-.08-.9-.15-1.39-.2s-.98-.08-1.49-.08c-1,0-1.86.13-2.57.38s-1.3.61-1.76,1.08c-.46.46-.79,1.02-1.01,1.66-.21.65-.32,1.36-.32,2.14,0,.86.13,1.62.39,2.28.26.66.63,1.21,1.11,1.66s1.05.78,1.73,1.01c.67.23,1.43.34,2.26.34.64,0,1.23-.04,1.77-.11.54-.07,1.05-.16,1.51-.27.46-.11.88-.24,1.26-.38.38-.14.72-.28,1.03-.42v2.32Z"/><path d="m1159.02,280.03v-3.03h2.78v3.03h-2.78Zm0,17.25v-14.36h2.78v14.36h-2.78Z"/><path d="m1181.03,297.28v-8.71c0-.72-.1-1.32-.29-1.8-.19-.49-.48-.88-.86-1.17s-.85-.51-1.42-.64c-.56-.13-1.22-.19-1.97-.19-.54,0-1.07.04-1.58.12s-1.01.19-1.48.33-.91.3-1.32.48-.78.38-1.09.58v11.01h-2.78v-14.36h2.32l.22,1.43c.36-.26.77-.5,1.23-.71.46-.22.96-.4,1.5-.56s1.11-.28,1.71-.36,1.22-.13,1.86-.13c.6,0,1.19.04,1.75.11.57.07,1.1.2,1.6.37.5.17.95.4,1.37.68.41.28.77.62,1.07,1.03.3.41.53.89.69,1.44s.25,1.18.25,1.89v9.18h-2.77Z"/><path d="m1202.45,295.71c-.35.22-.74.42-1.16.59s-.87.33-1.34.46-.96.23-1.47.3c-.51.07-1.02.11-1.54.11-1.27,0-2.41-.16-3.44-.47-1.02-.32-1.9-.79-2.62-1.41s-1.28-1.38-1.67-2.29c-.39-.91-.59-1.95-.59-3.14s.19-2.18.57-3.09c.38-.9.94-1.67,1.66-2.29s1.61-1.09,2.66-1.42c1.05-.33,2.25-.49,3.58-.49.55,0,1.08.03,1.61.1.52.07,1.03.17,1.5.3.48.13.93.29,1.35.47s.8.4,1.14.64l.19-1.18h2.32v13.88c0,1.2-.2,2.23-.61,3.08-.41.85-.98,1.55-1.73,2.08s-1.66.93-2.72,1.18c-1.07.25-2.26.37-3.58.37-.72,0-1.41-.03-2.07-.08s-1.28-.13-1.85-.23-1.09-.21-1.56-.34c-.47-.13-.87-.27-1.2-.41v-2.35c.38.16.8.31,1.26.45.46.14.95.26,1.49.37.54.1,1.12.18,1.74.24s1.3.09,2.03.09c.94,0,1.78-.07,2.53-.22.75-.15,1.38-.4,1.9-.76.52-.36.92-.84,1.2-1.44.28-.6.42-1.35.42-2.27v-.87Zm0-9.58c-.34-.22-.7-.42-1.09-.59s-.78-.32-1.2-.44c-.41-.12-.84-.21-1.29-.28-.45-.06-.91-.1-1.38-.1-.97,0-1.83.1-2.58.31s-1.38.53-1.89.95c-.51.42-.9.96-1.16,1.6s-.39,1.4-.39,2.26.13,1.62.39,2.27c.26.64.65,1.18,1.16,1.61.51.43,1.14.75,1.89.96.75.21,1.61.32,2.58.32.47,0,.93-.03,1.38-.1.45-.06.88-.16,1.29-.28.42-.12.81-.27,1.2-.44s.74-.37,1.09-.59v-7.47Z"/><path d="m1027.28,330.88l-3.83-9.15c-.16-.38-.31-.76-.48-1.14-.16-.38-.32-.75-.48-1.13-.16.38-.32.76-.48,1.16-.16.39-.32.78-.48,1.17l-3.75,9.1h-2.57l-6.72-14.36h3.02l4.01,9.15c.17.38.34.77.5,1.15s.33.77.5,1.15c.15-.38.31-.77.47-1.15s.32-.77.47-1.15l3.78-9.15h2.58l3.86,9.15c.15.38.31.76.48,1.13s.32.75.48,1.13c.17-.38.33-.76.49-1.13s.32-.75.49-1.13l3.98-9.15h2.97l-6.72,14.36h-2.58Z"/><path d="m1047.3,331.21c-1.01,0-1.92-.09-2.74-.26s-1.55-.42-2.19-.74c-.64-.32-1.19-.7-1.66-1.15s-.85-.96-1.16-1.51c-.3-.56-.53-1.16-.68-1.81-.15-.65-.22-1.34-.22-2.06s.07-1.38.22-2.03.38-1.25.69-1.8c.31-.56.7-1.06,1.17-1.51s1.03-.84,1.67-1.16,1.37-.57,2.18-.74,1.72-.26,2.71-.26,1.92.09,2.74.26,1.55.42,2.19.73c.64.32,1.2.7,1.67,1.15.47.45.86.96,1.16,1.51.3.56.53,1.16.68,1.82s.22,1.33.22,2.05-.07,1.39-.22,2.04-.38,1.25-.69,1.8c-.31.56-.7,1.06-1.17,1.51s-1.03.84-1.67,1.16-1.37.57-2.18.74c-.82.17-1.72.26-2.71.26Zm0-2.15c.99,0,1.86-.13,2.58-.38.73-.25,1.33-.61,1.81-1.08s.83-1.03,1.06-1.68c.23-.66.34-1.4.34-2.21s-.12-1.55-.34-2.21-.58-1.23-1.06-1.7-1.08-.83-1.81-1.09c-.73-.25-1.59-.38-2.58-.38s-1.85.13-2.58.38c-.73.25-1.33.61-1.8,1.08s-.83,1.03-1.06,1.69c-.23.66-.35,1.39-.35,2.2s.12,1.55.35,2.21c.23.66.59,1.23,1.06,1.7s1.08.83,1.8,1.09,1.59.38,2.58.38Z"/><path d="m1061.07,330.88v-14.36h2.49l.22,2.6c.25-.37.54-.73.87-1.08.33-.35.72-.66,1.16-.92.44-.27.94-.48,1.5-.64.56-.16,1.18-.24,1.88-.24.52,0,1,.03,1.43.1s.81.15,1.12.27v2.46c-.21-.05-.42-.1-.65-.14s-.46-.08-.7-.11c-.24-.03-.49-.05-.75-.07s-.52-.02-.78-.02c-.5,0-.96.05-1.37.14s-.79.21-1.12.36c-.34.15-.64.32-.91.52s-.5.4-.7.61c-.2.21-.38.41-.53.62s-.28.39-.38.57v9.35h-2.78Z"/><path d="m1087.19,330.88l-8.73-6.55v6.55h-2.78v-20.28h2.78v12.21l8.62-6.3h3.81l-8.01,5.77c-.15.1-.29.21-.44.31-.15.1-.29.2-.43.3-.14.1-.29.21-.43.31-.14.1-.29.21-.43.31.14.1.28.19.41.29.13.1.27.19.4.28.13.09.27.19.4.28.13.1.27.19.41.29l8.63,6.21h-4.21Z"/><path d="m1122.64,330.88l-2.91-2.3c-.59.43-1.21.81-1.87,1.13-.66.33-1.35.6-2.06.82-.71.22-1.44.39-2.19.5-.75.11-1.5.17-2.26.17-.93,0-1.79-.05-2.58-.16s-1.52-.27-2.18-.49-1.24-.48-1.75-.79c-.51-.31-.94-.67-1.28-1.08-.35-.41-.61-.85-.79-1.35s-.27-1.03-.27-1.6c0-.49.07-.95.22-1.38.15-.43.35-.83.62-1.2.26-.37.58-.72.95-1.04.37-.32.77-.62,1.21-.91s.9-.55,1.39-.79c.49-.24,1-.47,1.52-.69l.06-.03-.37-.31c-.43-.34-.84-.69-1.23-1.05-.38-.36-.72-.73-1.01-1.1s-.51-.77-.68-1.18-.25-.84-.25-1.29c0-.49.07-.95.2-1.36.13-.42.33-.79.58-1.12.25-.33.57-.63.94-.88.37-.25.8-.46,1.28-.64.48-.17,1.01-.3,1.58-.38.58-.08,1.2-.13,1.87-.13,1.01,0,1.92.09,2.71.28.79.19,1.47.46,2.02.83.55.37.97.84,1.25,1.41s.43,1.23.43,2c0,.6-.13,1.15-.4,1.65s-.63.97-1.08,1.41c-.45.43-.97.83-1.57,1.19-.6.36-1.22.69-1.88.99l-.17.08,6.97,5.46c.38-.43.71-.89,1.01-1.39s.54-1.02.75-1.58.36-1.14.46-1.74.16-1.23.16-1.87v-.81h4.85v2.19h-2.32c-.08.67-.21,1.31-.38,1.93s-.39,1.2-.65,1.76c-.26.56-.56,1.09-.89,1.58s-.7.96-1.1,1.39l4.96,3.86h-3.86Zm-12.29-9.69l-.64.28c-.6.27-1.16.55-1.68.84-.52.29-.98.6-1.36.94-.38.33-.69.7-.91,1.09s-.33.83-.33,1.3c0,.45.12.87.34,1.27.23.4.59.75,1.07,1.04.48.3,1.1.53,1.85.7.75.17,1.64.26,2.67.26.63,0,1.24-.04,1.83-.11.59-.08,1.17-.19,1.71-.34s1.07-.34,1.56-.56.96-.48,1.39-.78l-7.51-5.93Zm1.26-2.8c.54-.23,1.02-.48,1.44-.74.42-.26.78-.54,1.08-.83.29-.29.52-.6.67-.93.15-.33.23-.67.23-1.02,0-.45-.1-.82-.3-1.13-.2-.31-.47-.56-.8-.74-.33-.19-.72-.33-1.16-.41s-.9-.12-1.37-.12-.94.04-1.37.12-.83.22-1.16.41c-.34.19-.61.44-.81.74-.2.31-.3.69-.3,1.13,0,.2.04.41.11.63s.19.46.36.7.37.49.62.75c.25.26.55.53.9.8l1.18.95.7-.31Z"/><path d="m1142.11,330.88v-12.18h-4.12v-2.18h4.12v-.96c0-.82.12-1.56.37-2.21s.63-1.21,1.16-1.66c.52-.46,1.19-.81,1.99-1.05.81-.24,1.77-.37,2.89-.37.44,0,.85.01,1.23.04.38.03.73.07,1.05.12.32.05.62.12.89.19s.52.15.74.23v2.19c-.25-.08-.53-.16-.83-.22-.3-.07-.62-.12-.95-.17s-.67-.08-1.03-.11c-.35-.03-.71-.04-1.06-.04-.68,0-1.26.07-1.73.2s-.85.33-1.15.6c-.29.27-.5.6-.63,1.01-.13.41-.19.89-.19,1.44v.76h6.05v2.18h-6.05v12.18h-2.77Z"/><path d="m1166.05,330.88l-.23-1.32c-.35.25-.75.48-1.19.69-.44.2-.92.38-1.44.52-.52.14-1.07.25-1.65.33-.58.08-1.19.12-1.82.12-.9,0-1.73-.09-2.51-.26-.77-.18-1.45-.44-2.02-.8-.57-.36-1.02-.81-1.35-1.35-.33-.54-.49-1.17-.49-1.9,0-.47.07-.91.22-1.32.15-.41.37-.77.67-1.1s.69-.62,1.16-.87c.47-.25,1.03-.46,1.68-.64.65-.17,1.4-.3,2.24-.39.84-.09,1.78-.13,2.82-.13.39,0,.79,0,1.2.02.41.01.79.03,1.15.04.36.02.72.03,1.09.05v-.5c0-.59-.09-1.11-.27-1.56-.18-.45-.46-.83-.85-1.14-.39-.31-.88-.54-1.48-.7s-1.32-.24-2.16-.24c-.72,0-1.37.02-1.94.07-.57.05-1.09.12-1.57.21s-.92.2-1.34.33c-.42.13-.84.28-1.26.45v-2.15c.38-.17.79-.32,1.22-.46s.91-.26,1.43-.36,1.08-.18,1.7-.24c.61-.06,1.28-.09,2.01-.09,1.08,0,2.07.11,2.97.34.89.23,1.66.57,2.3,1.02s1.14,1.03,1.49,1.72c.35.69.53,1.5.53,2.43v9.18h-2.32Zm-.45-6.38h-2.77c-1.2,0-2.21.04-3.05.13s-1.52.22-2.05.41c-.53.18-.91.42-1.15.71s-.36.64-.36,1.05c0,.37.08.7.23.98s.39.53.72.72c.33.19.74.34,1.25.44s1.12.15,1.84.15c.55,0,1.08-.03,1.6-.1s.99-.16,1.45-.28c.45-.12.87-.27,1.26-.44.39-.17.74-.37,1.05-.59v-3.19Z"/><path d="m1200.07,330.88v-8.71c0-.72-.1-1.32-.29-1.8-.19-.49-.48-.88-.86-1.17s-.85-.51-1.42-.64c-.57-.13-1.22-.19-1.97-.19-.56,0-1.11.04-1.65.13-.54.09-1.05.21-1.54.36-.49.15-.94.32-1.36.52s-.78.4-1.1.62c.05.25.1.52.14.81.04.29.05.59.05.9v9.18h-2.77v-8.71c0-.72-.1-1.32-.29-1.8-.19-.49-.48-.88-.86-1.17s-.85-.51-1.42-.64c-.57-.13-1.22-.19-1.98-.19-.54,0-1.06.04-1.58.12s-1.01.19-1.48.33-.91.3-1.32.48-.77.38-1.09.58v11.01h-2.78v-14.36h2.32l.23,1.43c.36-.26.76-.5,1.23-.71.46-.22.96-.4,1.5-.56s1.11-.28,1.71-.36,1.22-.13,1.86-.13c.6,0,1.18.04,1.74.12s1.09.2,1.59.38c.5.17.95.4,1.37.68.41.28.77.62,1.07,1.03.34-.3.77-.58,1.27-.85.5-.27,1.06-.5,1.67-.71.61-.2,1.26-.36,1.95-.48.69-.12,1.4-.17,2.12-.17.6,0,1.19.04,1.75.11.57.07,1.1.2,1.6.37.5.17.95.4,1.37.68.42.28.77.62,1.07,1.03.3.41.53.89.69,1.44s.25,1.18.25,1.89v9.18h-2.77Z"/><path d="m1208.97,313.63v-3.03h2.78v3.03h-2.78Zm0,17.25v-14.36h2.78v14.36h-2.78Z"/><path d="m1225.24,330.77c-.2.05-.41.11-.65.16-.24.05-.49.1-.77.14-.28.04-.57.08-.89.1-.32.03-.66.04-1.03.04-.72,0-1.32-.08-1.81-.24s-.89-.39-1.19-.7-.52-.7-.66-1.16c-.13-.46-.2-.99-.2-1.6v-16.91h2.77v16.58c0,.29.02.54.07.75.05.22.14.4.27.54s.31.25.54.33c.23.07.52.11.89.11.56,0,1.07-.03,1.51-.08.44-.05.83-.12,1.15-.21v2.13Z"/><path d="m1225.51,334.66c.19.04.39.08.62.12s.49.05.78.05c.43,0,.84-.03,1.23-.09.39-.06.75-.16,1.1-.28s.67-.29.97-.48c.31-.19.6-.42.87-.69.28-.27.54-.57.78-.91.25-.34.48-.72.71-1.13l.36-.67-7.2-14.05h3.08l4.65,9.46c.17.34.33.68.49,1,.16.33.32.67.49,1.02.17-.35.33-.7.49-1.03s.32-.67.49-1.01l4.59-9.43h3.02l-7.59,14.78c-.3.59-.62,1.15-.96,1.67-.33.52-.69,1-1.08,1.42-.38.43-.8.82-1.25,1.16-.45.34-.93.62-1.46.86-.53.23-1.1.41-1.73.53s-1.3.18-2.04.18c-.11,0-.23,0-.36-.01-.13,0-.26-.02-.39-.03-.13-.02-.25-.04-.37-.06-.12-.02-.22-.05-.31-.09v-2.27Z"/><path d="m1357.52,297.28l-2.51-5h0s-12.21-.01-12.21-.01h0s-2.49,5.01-2.49,5.01h-3.17l10.14-20.28h3.34l10.13,20.28h-3.22Zm-7.42-15.18c-.2-.4-.4-.8-.6-1.22s-.41-.83-.6-1.24c-.2.41-.4.81-.61,1.23-.2.41-.4.82-.6,1.23l-3.86,7.8h0s10.14.01,10.14.01h0s-3.86-7.81-3.86-7.81Z"/><path d="m1376.75,297.28l-.22-1.23c-.36.23-.75.44-1.19.64s-.91.36-1.41.49c-.5.14-1.02.24-1.58.32s-1.12.12-1.71.12-1.19-.03-1.76-.09c-.57-.06-1.12-.17-1.62-.32-.51-.16-.97-.36-1.4-.62-.43-.26-.79-.59-1.1-.99-.31-.4-.55-.87-.72-1.42-.17-.55-.26-1.19-.26-1.92v-9.32h2.77v8.85c0,.68.1,1.25.31,1.72.21.47.51.84.91,1.13.4.29.88.5,1.47.62.58.13,1.25.19,2,.19.55,0,1.05-.03,1.5-.09s.88-.15,1.28-.26c.4-.12.79-.26,1.16-.43.37-.17.75-.37,1.13-.59v-11.14h2.77v14.36h-2.32Z"/><path d="m1398.48,297.28l-.22-1.26c-.34.23-.73.45-1.17.64-.44.19-.9.36-1.39.5s-1.01.25-1.55.33c-.54.08-1.09.12-1.64.12-1.27,0-2.41-.17-3.43-.5-1.02-.33-1.9-.82-2.62-1.47-.72-.64-1.28-1.43-1.67-2.37s-.59-2-.59-3.2.19-2.21.57-3.14c.38-.93.94-1.71,1.66-2.36s1.61-1.14,2.66-1.48c1.05-.34,2.25-.51,3.59-.51.51,0,1.01.03,1.51.09.49.06.97.14,1.42.26.46.11.89.25,1.3.42.41.17.78.36,1.12.58v-6.92h2.77v20.28h-2.32Zm-.44-11.14c-.34-.22-.7-.42-1.09-.59s-.78-.32-1.2-.44c-.41-.12-.85-.21-1.29-.28s-.91-.1-1.38-.1c-.97,0-1.83.11-2.58.33-.75.22-1.38.56-1.89,1s-.9,1-1.16,1.67c-.26.67-.39,1.45-.39,2.33s.13,1.67.39,2.34c.26.67.65,1.23,1.16,1.69s1.14.79,1.89,1.02c.75.22,1.61.34,2.58.34.47,0,.93-.03,1.38-.1s.88-.16,1.29-.28c.41-.12.81-.27,1.2-.44s.75-.37,1.09-.59v-7.92Z"/><path d="m1407.24,280.03v-3.03h2.78v3.03h-2.78Zm0,17.25v-14.36h2.78v14.36h-2.78Z"/><path d="m1443.03,297.28l-2.51-5h0s-12.21-.01-12.21-.01h0s-2.49,5.01-2.49,5.01h-3.17l10.14-20.28h3.34l10.13,20.28h-3.22Zm-7.42-15.18c-.2-.4-.4-.8-.6-1.22s-.41-.83-.6-1.24c-.2.41-.4.81-.6,1.23-.2.41-.4.82-.6,1.23l-3.86,7.8h0s10.14.01,10.14.01h0s-3.86-7.81-3.86-7.81Z"/><path d="m1462.21,296.52c-.34.15-.7.29-1.09.42s-.81.25-1.27.35-.98.18-1.56.24c-.57.06-1.22.09-1.94.09-1.27,0-2.4-.18-3.4-.54s-1.84-.87-2.53-1.52c-.69-.66-1.22-1.45-1.58-2.38-.36-.93-.55-1.96-.55-3.09,0-.71.08-1.39.23-2.04.16-.65.39-1.25.7-1.81.31-.56.71-1.06,1.18-1.51.47-.45,1.03-.83,1.66-1.15.63-.32,1.35-.56,2.15-.73.8-.17,1.68-.26,2.65-.26.48,0,.96.02,1.45.06.48.04.94.11,1.39.19.44.08.86.17,1.25.28.39.11.74.23,1.04.36v2.26c-.31-.12-.67-.24-1.05-.35-.39-.11-.8-.21-1.24-.29-.44-.08-.9-.15-1.39-.2-.49-.05-.98-.08-1.49-.08-1,0-1.86.13-2.57.38-.71.25-1.3.61-1.76,1.08-.46.46-.79,1.02-1.01,1.66-.21.65-.32,1.36-.32,2.14,0,.86.13,1.62.39,2.28.26.66.63,1.21,1.11,1.66s1.06.78,1.73,1.01,1.43.34,2.26.34c.64,0,1.23-.04,1.77-.11.54-.07,1.05-.16,1.51-.27.46-.11.88-.24,1.26-.38.38-.14.72-.28,1.03-.42v2.32Z"/><path d="m1478.82,297.28l-.23-1.32c-.35.25-.75.48-1.19.69-.44.2-.92.38-1.44.52-.52.14-1.07.25-1.65.33s-1.19.12-1.82.12c-.9,0-1.73-.09-2.5-.26-.77-.18-1.45-.44-2.02-.8-.57-.36-1.02-.81-1.35-1.35-.33-.54-.49-1.17-.49-1.9,0-.47.07-.91.22-1.32s.37-.77.67-1.1c.3-.33.69-.62,1.16-.87.47-.25,1.03-.46,1.69-.64.65-.17,1.4-.3,2.24-.39.84-.09,1.78-.13,2.82-.13.39,0,.79,0,1.2.02.41.01.79.03,1.15.04.36.02.72.03,1.09.05v-.5c0-.59-.09-1.11-.27-1.56-.18-.45-.46-.83-.85-1.14-.38-.31-.88-.54-1.48-.7s-1.32-.24-2.16-.24c-.72,0-1.36.02-1.93.07-.57.05-1.09.12-1.57.21-.48.09-.92.2-1.34.33s-.84.28-1.26.45v-2.15c.38-.17.79-.32,1.22-.46.43-.14.91-.26,1.43-.36s1.08-.18,1.7-.24c.61-.06,1.28-.09,2.01-.09,1.08,0,2.07.11,2.97.34.89.23,1.66.57,2.3,1.02.64.46,1.13,1.03,1.49,1.72s.53,1.5.53,2.43v9.18h-2.32Zm-.45-6.38h-2.77c-1.2,0-2.22.04-3.05.13-.84.09-1.52.22-2.05.41-.53.18-.91.42-1.15.71-.24.29-.36.64-.36,1.05,0,.37.08.7.23.98.15.29.39.53.72.72.33.19.74.34,1.25.44.51.1,1.12.15,1.83.15.55,0,1.08-.03,1.6-.1.51-.06.99-.16,1.45-.28.45-.12.87-.27,1.26-.44s.74-.37,1.05-.59v-3.19Z"/><path d="m1500.23,297.28l-.22-1.26c-.34.23-.73.45-1.17.64-.43.19-.9.36-1.39.5s-1.01.25-1.55.33c-.54.08-1.09.12-1.64.12-1.27,0-2.41-.17-3.44-.5-1.02-.33-1.9-.82-2.62-1.47-.72-.64-1.28-1.43-1.67-2.37s-.59-2-.59-3.2.19-2.21.57-3.14c.38-.93.94-1.71,1.66-2.36s1.61-1.14,2.66-1.48c1.05-.34,2.25-.51,3.58-.51.51,0,1.01.03,1.51.09.5.06.97.14,1.43.26.46.11.89.25,1.29.42.41.17.78.36,1.12.58v-6.92h2.77v20.28h-2.32Zm-.44-11.14c-.34-.22-.7-.42-1.09-.59s-.78-.32-1.2-.44c-.42-.12-.84-.21-1.29-.28s-.91-.1-1.38-.1c-.97,0-1.83.11-2.58.33-.75.22-1.38.56-1.89,1s-.9,1-1.16,1.67c-.26.67-.39,1.45-.39,2.33s.13,1.67.39,2.34c.26.67.65,1.23,1.16,1.69s1.14.79,1.89,1.02c.75.22,1.61.34,2.58.34.47,0,.93-.03,1.38-.1s.88-.16,1.29-.28c.42-.12.81-.27,1.2-.44s.75-.37,1.09-.59v-7.92Z"/><path d="m1522.63,296.3c-.41.19-.84.36-1.3.52-.46.16-.96.3-1.49.42-.54.12-1.11.21-1.73.27-.62.07-1.29.1-2.01.1-.94,0-1.81-.09-2.59-.26-.78-.17-1.48-.42-2.11-.75s-1.17-.72-1.63-1.18-.85-.98-1.16-1.55c-.31-.57-.54-1.19-.7-1.87-.15-.67-.23-1.38-.23-2.13,0-.68.08-1.34.24-1.97s.39-1.21.7-1.75c.31-.54.69-1.03,1.15-1.47s.98-.82,1.57-1.13c.59-.31,1.25-.55,1.98-.72.73-.17,1.51-.26,2.36-.26s1.61.08,2.32.24c.72.16,1.37.38,1.96.68.59.29,1.11.65,1.56,1.07.45.42.83.88,1.14,1.4.31.52.54,1.08.7,1.69s.24,1.25.24,1.93c0,.09,0,.19,0,.29,0,.1,0,.2-.01.3,0,.1-.01.19-.02.28,0,.09-.01.16-.02.23h-13.1c.05.72.21,1.36.47,1.94s.64,1.07,1.13,1.48,1.1.73,1.82.95c.72.22,1.57.33,2.53.33.69,0,1.33-.04,1.9-.11.58-.07,1.12-.17,1.61-.28.5-.12.97-.25,1.41-.41s.87-.32,1.29-.49v2.21Zm-1.74-7.76c-.06-.57-.24-1.08-.52-1.55-.29-.47-.66-.88-1.12-1.21-.46-.34-.99-.6-1.6-.79-.61-.19-1.27-.28-1.97-.28s-1.36.09-1.98.28-1.15.45-1.61.79-.83.74-1.12,1.21c-.28.47-.45.99-.51,1.55h10.42Z"/><path d="m1554.13,297.28v-8.71c0-.72-.1-1.32-.29-1.8-.19-.49-.48-.88-.86-1.17-.38-.3-.85-.51-1.42-.64-.57-.13-1.22-.19-1.97-.19-.56,0-1.11.04-1.65.13-.54.09-1.05.21-1.54.36-.49.15-.94.32-1.36.52-.42.2-.78.4-1.1.62.05.25.1.52.14.81s.05.59.05.9v9.18h-2.77v-8.71c0-.72-.1-1.32-.29-1.8-.19-.49-.48-.88-.86-1.17-.38-.3-.85-.51-1.42-.64-.56-.13-1.22-.19-1.98-.19-.54,0-1.07.04-1.58.12-.52.08-1.01.19-1.48.33-.47.14-.91.3-1.32.48s-.77.38-1.09.58v11.01h-2.78v-14.36h2.32l.23,1.43c.36-.26.76-.5,1.23-.71.46-.22.96-.4,1.5-.56.54-.16,1.11-.28,1.71-.36.6-.09,1.22-.13,1.86-.13.6,0,1.18.04,1.74.12.56.08,1.09.2,1.59.38.5.17.95.4,1.37.68.41.28.77.62,1.07,1.03.34-.3.76-.58,1.27-.85.5-.27,1.06-.5,1.67-.71.61-.2,1.26-.36,1.95-.48.69-.12,1.4-.17,2.12-.17.6,0,1.19.04,1.75.11.57.07,1.1.2,1.6.37s.95.4,1.37.68.77.62,1.07,1.03.53.89.69,1.44.25,1.18.25,1.89v9.18h-2.77Z"/><path d="m1559.42,301.06c.19.04.39.08.62.12.22.04.49.05.78.05.43,0,.84-.03,1.23-.09.39-.06.75-.16,1.1-.28.34-.13.67-.29.97-.48.3-.19.6-.42.87-.69.28-.27.54-.57.78-.91.25-.34.48-.72.7-1.13l.36-.67-7.2-14.05h3.08l4.65,9.46c.17.34.33.68.49,1,.16.33.32.67.49,1.02.17-.35.33-.7.49-1.03.16-.34.32-.67.49-1.01l4.59-9.43h3.02l-7.59,14.78c-.3.59-.62,1.15-.96,1.67s-.69,1-1.08,1.42c-.39.43-.8.82-1.25,1.16-.45.34-.93.62-1.46.86s-1.1.41-1.73.53c-.62.12-1.3.18-2.04.18-.11,0-.23,0-.36-.01-.13,0-.26-.02-.39-.03-.13-.02-.25-.04-.37-.06s-.22-.05-.31-.09v-2.27Z"/><path class="cls-2" d="m432.9,192.39h-12.29v-31.21c0-4.41,3.47-7.88,7.88-7.88h46.97c4.41,0,7.88,3.47,7.88,7.88v6.62m-39.41-56.11h15.76c4.41,0,7.88,3.47,7.88,7.88v15.76c0,4.41-3.47,7.88-7.88,7.88h-15.76c-4.41,0-7.88-3.47-7.88-7.88v-15.76c.32-4.73,3.47-7.88,7.88-7.88Z"/><path class="cls-2" d="m404.21,122.09l54.22-44.14,68.73,54.22"/><path class="cls-2" d="m453.08,167.81h52.96l-7.25,34.68h-58.95l7.25-28.37c0-.32.95-6.31,5.99-6.31Z"/><path class="cls-2" d="m1478,189.87h42.24v-37.83c0-5.36-4.1-9.46-9.46-9.46h-52.02m12.61-50.44h20.49c5.36,0,9.46,4.1,9.46,9.46v18.92c0,5.36-4.1,9.46-9.46,9.46h-18.92c-5.36,0-9.46-4.1-9.46-9.46v-7.88m-12.61-3.15v20.49c0,5.36-4.1,9.46-9.46,9.46h-18.92c-5.36,0-9.46-4.1-9.46-9.46v-20.49m-18.92-9.46v-1.58l37.83-17.34,37.83,18.92-37.83,18.92-37.83-18.92Zm0,0v28.37m0,70.93v-37.83c0-5.36,4.1-9.46,9.46-9.46h56.75c5.36,0,9.46,4.1,9.46,9.46v37.83h-75.66Z"/><path class="cls-2" d="m821.11,139.91c0,37.52-11.98,68.09-26.8,68.09s-26.8-30.26-26.8-67.78,11.98-67.78,26.8-67.78,26.8,30.26,26.8,67.46Zm-85.75,33.42h117.9-117.9Zm-8.83-31.53h135.56-135.56Zm7.25-31.53h121.37-121.37Zm128.31,29.63c0,37.52-30.26,67.78-67.46,68.09-37.52,0-67.78-30.26-68.09-67.46,0-37.52,30.26-67.78,67.46-68.09h.32c37.2,0,67.46,30.26,67.78,67.46Z"/><path class="cls-2" d="m1103.41,188.14v-25.22c0-3.47,2.84-6.31,6.31-6.31h37.83c3.47,0,6.31,2.84,6.31,6.31v25.22h-50.44Zm18.92-65.57h12.61c3.47,0,6.31,2.84,6.31,6.31v12.61c0,3.47-2.84,6.31-6.31,6.31h-12.61c-3.47,0-6.31-2.84-6.31-6.31v-12.61c0-3.47,2.84-6.31,6.31-6.31Z"/><path class="cls-2" d="m1165.83,181.83h26.48v-30.58c0-4.41-3.47-7.57-7.57-7.57h-31.84"/><path class="cls-2" d="m1159.21,102.71h15.45c4.41,0,7.57,3.47,7.57,7.57v15.45c0,4.41-3.47,7.57-7.57,7.57h-15.45c-4.41,0-7.57-3.47-7.57-7.57v-15.45c0-4.41,3.47-7.57,7.57-7.57Z"/><path class="cls-2" d="m1092.69,171.43h-34.36v-30.58c0-4.41,3.47-7.57,7.57-7.57h42.24"/><path class="cls-2" d="m1096.79,92.3h-15.45c-4.41,0-7.57,3.47-7.57,7.57v15.45c0,4.41,3.47,7.57,7.57,7.57h15.45c4.41,0,7.57-3.47,7.57-7.57v-15.45c0-4.1-3.15-7.57-7.57-7.57Z"/></g></svg>